# xmcd
#
# Track frame offsets: 
#        150
#        18052
#        32976
#        51320
#        69826
#        84520
#        101953
#        119739
#        139901
#        156599
#        173210
#        189319
#        204329
#        220902
#
# Disc length: 3219 seconds
#
# Revision: 0
# Processed by: cddbd v1.5.2PL0 Copyright (c) Steve Scherf et al.
# Submitted via: ExactAudioCopy v0.95b4
#
DISCID=cb0c910e
DTITLE=Bleu Jackson - Lightning
DYEAR=2007
DGENRE=Rock
TTITLE0=Lightning
TTITLE1=Midnight Drag
TTITLE2=Don't mess with me Baby
TTITLE3=John de Conqueroo
TTITLE4=Bedrock Bottom
TTITLE5=We've been told
TTITLE6=Fever of Love
TTITLE7=Let's work together
TTITLE8=I don't know
TTITLE9=Five O'Clock News
TTITLE10=Where have you been so long
TTITLE11=Tight red dress
TTITLE12=Back into the Blues
TTITLE13=Lightning (Acoustic)
EXTD=
EXTT0=
EXTT1=
EXTT2=
EXTT3=
EXTT4=
EXTT5=
EXTT6=
EXTT7=
EXTT8=
EXTT9=
EXTT10=
EXTT11=
EXTT12=
EXTT13=
PLAYORDER=
